<?xml version="1.0" encoding="utf-8"?>
<!-- Generator: Adobe Illustrator 22.0.1, SVG Export Plug-In . SVG Version: 6.00 Build 0)  -->
<svg version="1.1" id="レイヤー_1" xmlns="http://www.w3.org/2000/svg" xmlns:xlink="http://www.w3.org/1999/xlink" x="0px"
	 y="0px" viewBox="0 0 280 280" style="enable-background:new 0 0 280 280;" xml:space="preserve">
<style type="text/css">
	.st0{fill:#F4F4F4;}
	.st1{fill:#E2E2E2;}
</style>
<title>noimage-app</title>
<g id="レイヤー_2_1_">
	<g id="レイヤー_1-2">
		<g id="noimage-app">
			<path id="bg" class="st0" d="M280,280H0V0h280V280z"/>
			<path id="app" class="st1" d="M184,129.6c1.2,0,2.5,0.3,3.6,0.9c1,0.6,1.8,1.4,2.4,2.4c0.6,1,1.1,2.1,1.3,3.3
				c0.3,1.2,0.4,2.5,0.4,3.8c0,1.3-0.1,2.5-0.4,3.8c-0.2,1.2-0.7,2.3-1.3,3.3c-0.6,0.9-1.4,1.7-2.4,2.3c-2.3,1.1-4.9,1.1-7.2,0
				c-1-0.6-1.8-1.3-2.4-2.3c-0.6-1-1.1-2.1-1.3-3.2c-0.3-1.2-0.4-2.5-0.4-3.8c0-1.3,0.1-2.6,0.4-3.8c0.2-1.2,0.6-2.3,1.3-3.3
				c0.6-0.9,1.4-1.7,2.4-2.3C181.5,129.9,182.7,129.6,184,129.6z M152.1,132.9c-0.6-1-1.4-1.8-2.4-2.4c-1.1-0.6-2.3-0.9-3.6-0.9
				c-1.3,0-2.5,0.3-3.6,0.9c-1,0.6-1.8,1.4-2.4,2.3c-0.6,1-1.1,2.1-1.3,3.3c-0.3,1.3-0.4,2.6-0.4,3.8c0,1.3,0.1,2.5,0.4,3.8
				c0.2,1.2,0.7,2.3,1.3,3.2c0.6,0.9,1.4,1.7,2.4,2.3c3.3,1.9,7.5,0.9,9.6-2.3c0.6-1,1.1-2.1,1.3-3.2c0.2-1.2,0.4-2.5,0.4-3.8
				c0-1.3-0.1-2.5-0.4-3.8C153.2,135,152.8,133.9,152.1,132.9L152.1,132.9z M105.6,122.6l-5.8,16.2h11.4l-5.6-16.2L105.6,122.6z
				 M210.9,144.2c0,37.4-30.3,67.7-67.7,67.7s-67.6-30.3-67.6-67.7s30.3-67.7,67.6-67.7c0,0,0,0,0,0
				C180.5,76.6,210.8,106.9,210.9,144.2L210.9,144.2z M127.2,155.9l-16.5-44.2h-10L84,155.9h9.8l3.5-9.9h16.5l3.3,9.8L127.2,155.9z
				 M162.6,140.2c0-2.2-0.3-4.4-0.9-6.5c-0.5-2-1.4-3.8-2.7-5.5c-1.2-1.6-2.8-2.9-4.5-3.8c-2-1-4.2-1.5-6.5-1.4
				c-1.9,0-3.7,0.4-5.4,1.2c-1.7,0.8-3.1,2.1-4.1,3.8h-0.1v-4.1h-8.3v43.2h8.8v-15.2h0.1c1,1.5,2.5,2.8,4.1,3.6
				c1.7,0.8,3.6,1.2,5.5,1.2c2.1,0,4.2-0.4,6.1-1.4c1.7-0.9,3.2-2.1,4.4-3.6c1.2-1.6,2.1-3.4,2.6-5.3
				C162.3,144.4,162.6,142.3,162.6,140.2L162.6,140.2z M192.4,124.4c-2-1-4.3-1.5-6.5-1.4c-1.9,0-3.7,0.4-5.4,1.2
				c-1.7,0.8-3.1,2.1-4.1,3.8h-0.1v-4.1h-8.4v43.2h8.8v-15.2h0.1c1,1.5,2.4,2.8,4.1,3.6c1.7,0.8,3.6,1.2,5.5,1.2
				c2.1,0,4.2-0.4,6.1-1.4c1.7-0.9,3.2-2.1,4.4-3.6c1.2-1.6,2.1-3.4,2.6-5.3c0.6-2,0.9-4.1,0.9-6.2c0-2.2-0.3-4.4-0.9-6.5
				c-0.5-2-1.4-3.8-2.7-5.5C195.7,126.6,194.2,125.3,192.4,124.4z M257.2,65.6v148.8c0,23.6-19.2,42.8-42.8,42.8H65.6
				c-23.6,0-42.8-19.2-42.8-42.8V65.6C22.8,42,42,22.8,65.6,22.8h148.8C238,22.8,257.2,42,257.2,65.6z M219.1,144.2
				c0-41.9-34-75.9-75.9-75.9s-75.9,34-75.9,75.9s34,75.9,75.9,75.9c0,0,0,0,0,0C185.1,220.1,219,186.1,219.1,144.2L219.1,144.2z"/>
		</g>
	</g>
</g>
</svg>
