<?xml version="1.0" encoding="utf-8"?>
<!-- Generator: Adobe Illustrator 22.0.1, SVG Export Plug-In . SVG Version: 6.00 Build 0)  -->
<svg version="1.1" id="レイヤー_1" xmlns="http://www.w3.org/2000/svg" xmlns:xlink="http://www.w3.org/1999/xlink" x="0px"
	 y="0px" viewBox="0 0 280 280" style="enable-background:new 0 0 280 280;" xml:space="preserve">
<style type="text/css">
	.st0{fill:#F4F4F4;}
	.st1{fill:#CCCCCC;}
</style>
<title>noimage-user</title>
<g id="レイヤー_2_1_">
	<g id="レイヤー_1-2">
		<g id="noimage-user">
			<path class="st0" d="M280,280H0V0h280V280z"/>
			<path id="USER" class="st1" d="M240,227.5L240,227.5c0,5.2-4.2,9.3-9.4,9.3H49.4c-5.1,0.1-9.3-4.1-9.4-9.2c0,0,0-0.1,0-0.1l0,0
				c0,0,0-34.1,25-46.5c15.8-7.9,9.7-1.4,29.1-9.5s24-10.8,24-10.8l0.2-18.5c0,0-7.3-5.5-9.5-23c-4.5,1.3-6-5.3-6.3-9.6
				c-0.2-4.1-2.6-16.9,2.9-15.7c-1.1-8.5-1.9-16.2-1.5-20.3c1.4-14.3,15.2-29.2,36.4-30.3c25,1.1,34.8,16,36.2,30.3
				c0.4,4.1-0.5,11.8-1.6,20.3c5.5-1.1,3.1,11.6,2.9,15.7s-1.8,10.9-6.3,9.5c-2.3,17.4-9.5,22.9-9.5,22.9l0.2,18.4
				c0,0,4.6,2.6,24,10.7s13.3,2,29.1,9.8C240,193.4,240,227.4,240,227.5L240,227.5z"/>
		</g>
	</g>
</g>
</svg>
