<svg xmlns="http://www.w3.org/2000/svg" viewBox="0 0 280 292.33"><defs><style>.cls-1{fill:#f4f4f4;}.cls-2,.cls-3{fill:#ccc;}.cls-3{font-size:43.42px;font-family:NotoSansCJKjp-Regular-83pv-RKSJ-H, Noto Sans CJK JP;}</style></defs><title>noimage-pic</title><g id="レイヤー_2" data-name="レイヤー 2"><g id="レイヤー_1-2" data-name="レイヤー 1"><g id="noimage-pic"><path id="bg" class="cls-1" d="M280,280H0V0H280Z"/><path class="cls-2" d="M218.69,61.88H183.78L179.12,37.5a4,4,0,0,0-3.89-3.23H102.66a4,4,0,0,0-3.88,3.23L94.12,61.88H59.2A12.27,12.27,0,0,0,46.93,74.15v98.16A12.27,12.27,0,0,0,59.2,184.58H218.69A12.27,12.27,0,0,0,231,172.31V74.15A12.27,12.27,0,0,0,218.69,61.88ZM139,166.18a43,43,0,1,1,42.94-42.95A43,43,0,0,1,139,166.18Zm28.87-42.95A28.87,28.87,0,1,1,139,94.36,28.88,28.88,0,0,1,167.82,123.23Z"/><text class="cls-3" transform="translate(37.42 246.83)">NO IMAGE</text></g></g></g></svg>