<svg xmlns="http://www.w3.org/2000/svg" xmlns:xlink="http://www.w3.org/1999/xlink" viewBox="0 0 48 48"><defs><style>.cls-1{fill:#fff;}.cls-2{fill:#2869dc;}.cls-3{fill:#d3d3d3;}.cls-4{fill:none;}</style><symbol id="新規シンボル_2" data-name="新規シンボル 2" viewBox="0 0 38 42.6"><path class="cls-1" d="M19,41.85a3.75,3.75,0,0,1-1.88-.5L2.62,33A3.77,3.77,0,0,1,.75,29.71V12.89A3.77,3.77,0,0,1,2.62,9.65l14.5-8.4a3.78,3.78,0,0,1,3.76,0l14.5,8.4a3.77,3.77,0,0,1,1.87,3.24V29.71A3.77,3.77,0,0,1,35.38,33l-14.5,8.4A3.75,3.75,0,0,1,19,41.85Z"/><path class="cls-2" d="M19,1.5a3,3,0,0,1,1.5.4L35,10.3a3,3,0,0,1,1.5,2.6V29.71A3,3,0,0,1,35,32.3L20.5,40.7a3,3,0,0,1-3,0L3,32.3a3,3,0,0,1-1.5-2.59V12.9A3,3,0,0,1,3,10.3L17.5,1.9A3,3,0,0,1,19,1.5M19,0a4.4,4.4,0,0,0-2.25.61L2.25,9A4.5,4.5,0,0,0,0,12.9V29.71A4.5,4.5,0,0,0,2.25,33.6L16.75,42a4.52,4.52,0,0,0,4.5,0l14.5-8.4A4.5,4.5,0,0,0,38,29.71V12.9A4.5,4.5,0,0,0,35.75,9L21.25.61A4.4,4.4,0,0,0,19,0Z"/></symbol></defs><title>app-groupManager</title><g id="レイヤー_2" data-name="レイヤー 2"><g id="app-groupManager"><g id="app-groupManager-2" data-name="app-groupManager"><use width="38" height="42.6" transform="translate(5 2.7)" xlink:href="#新規シンボル_2"/><polygon class="cls-3" points="25.7 26.01 25.69 26.01 25.7 26.01 25.7 26.01"/><path class="cls-2" d="M25.73,25.79A.94.94,0,0,1,25,24.9a.37.37,0,0,1,0-.09c1.41-.81,2.44-3.2,2.44-4.85,0-2-1.54-4-3.43-4s-3.43,2-3.43,4a6.92,6.92,0,0,0,1.5,4h0a3.57,3.57,0,0,0,.93.82s0,.06,0,.09a.91.91,0,0,1-.8.89c-2.92.4-5.07,1.68-5.07,2.74,0,1.26,3.06,2.61,6.85,2.61s6.85-1.35,6.85-2.61C30.85,27.46,28.67,26.17,25.73,25.79Z"/><path class="cls-2" d="M33.66,24.79h0a.63.63,0,0,1-.64-.61s0-.05,0-.08a2.49,2.49,0,0,0,.62-.52h0a4.6,4.6,0,0,0,1-2.64,2.55,2.55,0,0,0-2.25-2.63,2.55,2.55,0,0,0-2.25,2.63,4.6,4.6,0,0,0,1,2.64h0a2.41,2.41,0,0,0,.6.52.24.24,0,0,1,0,.08.62.62,0,0,1-.63.61h0a7.65,7.65,0,0,0-1.81.49c2,.6,3.26,1.56,3.3,2.4,2.38,0,4.28-.31,4.28-1.12S35.52,25.06,33.66,24.79Z"/><path class="cls-2" d="M18.67,25.28a7.74,7.74,0,0,0-1.82-.49h0a.62.62,0,0,1-.63-.61.31.31,0,0,1,0-.08,2.28,2.28,0,0,0,.61-.52h0a4.6,4.6,0,0,0,1-2.64,2.54,2.54,0,0,0-2.25-2.63,2.55,2.55,0,0,0-2.25,2.63,4.6,4.6,0,0,0,1,2.64h0a2.25,2.25,0,0,0,.6.52s0,0,0,.08a.62.62,0,0,1-.63.61h0c-1.86.27-3.23,1.09-3.23,1.77s1.9,1.11,4.29,1.12C15.4,26.84,16.71,25.88,18.67,25.28Z"/><rect class="cls-4" width="48" height="48"/></g></g></g></svg>