<svg xmlns="http://www.w3.org/2000/svg" xmlns:xlink="http://www.w3.org/1999/xlink" viewBox="-4173 0 795.4 123.2">
  <defs>
    <style>
      .cls-1 {
        clip-path: url(#clip-path);
      }

      .cls-2 {
        fill: url(#radial-gradient);
      }

      .cls-3 {
        fill: #2869dc;
      }
    </style>
    <clipPath id="clip-path">
      <path id="パス_1" data-name="パス 1" d="M677.5,124.3a61.6,61.6,0,1,1-61.6-61.6A61.627,61.627,0,0,1,677.5,124.3Z" transform="translate(-499.4 0)"/>
    </clipPath>
    <radialGradient id="radial-gradient" cx="96.845" cy="96.844" r="96.844" gradientUnits="userSpaceOnUse">
      <stop offset="0.04" stop-color="#b9e1fa"/>
      <stop offset="0.062" stop-color="#a2d7f8"/>
      <stop offset="0.102" stop-color="#7dc8f4"/>
      <stop offset="0.144" stop-color="#5ebbf1"/>
      <stop offset="0.189" stop-color="#46b1ee"/>
      <stop offset="0.235" stop-color="#35aaec"/>
      <stop offset="0.286" stop-color="#2ba6eb"/>
      <stop offset="0.35" stop-color="#28a5eb"/>
      <stop offset="0.519" stop-color="#29a2ea"/>
      <stop offset="0.654" stop-color="#2a98e7"/>
      <stop offset="0.778" stop-color="#2d87e3"/>
      <stop offset="0.894" stop-color="#326fdc"/>
      <stop offset="0.9" stop-color="#326edc"/>
    </radialGradient>
  </defs>
  <g id="グループ化_4" data-name="グループ化 4" transform="translate(-4173 -62.7)">
    <g id="グループ化_2" data-name="グループ化 2">
      <g id="グループ化_1" data-name="グループ化 1" class="cls-1" transform="translate(499.4 0)">
        <circle id="楕円形_1" data-name="楕円形 1" class="cls-2" cx="96.8" cy="96.8" r="96.8"/>
      </g>
    </g>
    <g id="グループ化_3" data-name="グループ化 3">
      <path id="パス_2" data-name="パス 2" class="cls-3" d="M149.5,101.2l-18,77.7h-42l33-109.2h55.6l33.1,109.2H166Z"/>
      <path id="パス_3" data-name="パス 3" class="cls-3" d="M42.9,149.5V69.7H0V178.9H75.4l8.9-29.4Z"/>
      <path id="パス_4" data-name="パス 4" class="cls-3" d="M512.9,149.5V69.7H470V178.9h73.8l8.8-29.4Z"/>
      <path id="パス_5" data-name="パス 5" class="cls-3" d="M299,69.7v72.6L271,69.7H221.5V178.9h34.8V106.2l28.1,72.7h49.4V69.7Z"/>
      <path id="パス_6" data-name="パス 6" class="cls-3" d="M399.5,69.7H350.9V96.2h43.9c12.9,0,18,8.3,18,28.1s-5,28.1-18,28.1h-4.7V110.7H350.9v68.2h48.6c37.4,0,57.7-19.4,57.7-54.6S436.9,69.7,399.5,69.7Z"/>
      <path id="パス_7" data-name="パス 7" class="cls-3" d="M751.5,96.1h43.9V69.7H746.8c-37.4,0-57.7,19.4-57.7,54.6s20.3,54.6,57.7,54.6h48.6V110.7H756.2v41.7h-4.7c-12.9,0-18-8.3-18-28.1C733.5,104.4,738.5,96.1,751.5,96.1Z"/>
    </g>
  </g>
</svg>
